<svg width="71" height="70" viewBox="0 0 71 70" fill="none" xmlns="http://www.w3.org/2000/svg">
<rect x="0.939941" width="70" height="70" rx="35" fill="#307BC4"/>
<g clip-path="url(#clip0_1_52)">
<g clip-path="url(#clip1_1_52)">
<g clip-path="url(#clip2_1_52)">
<path d="M35.939 18.5001C33.408 18.4901 30.9098 19.0713 28.6432 20.1973C28.4929 20.2579 28.3567 20.3489 28.2432 20.4645C28.1296 20.5802 28.0412 20.718 27.9833 20.8693C27.9254 21.0207 27.8994 21.1824 27.9068 21.3443C27.9143 21.5061 27.955 21.6647 28.0265 21.8102C28.098 21.9556 28.1987 22.0847 28.3224 22.1895C28.446 22.2942 28.59 22.3723 28.7452 22.419C28.9004 22.4656 29.0635 22.4797 29.2245 22.4604C29.3854 22.4411 29.5405 22.3889 29.6803 22.3069C31.8375 21.2425 34.2305 20.7459 36.6331 20.864C39.0356 20.982 41.3684 21.7108 43.4108 22.9815C45.4532 24.2522 47.1378 26.0227 48.3053 28.1257C49.4727 30.2288 50.0845 32.5948 50.0827 35.0001C50.0827 40.7515 46.9947 47.1629 41.8322 47.9643C41.284 48.0953 40.7136 48.1041 40.1616 47.9901C39.6096 47.876 39.0895 47.6419 38.6381 47.3044C37.6124 46.171 37.0672 44.6835 37.1176 43.1558C39.0796 42.8726 40.874 41.8926 42.1726 40.395C43.4712 38.8973 44.1872 36.9823 44.1895 35.0001V27.9287C44.1895 27.6161 44.0653 27.3163 43.8443 27.0953C43.6232 26.8743 43.3234 26.7501 43.0108 26.7501H39.4749C39.1623 26.7501 38.8625 26.8743 38.6415 27.0953C38.4204 27.3163 38.2963 27.6161 38.2963 27.9287C38.2963 28.2413 38.4204 28.541 38.6415 28.7621C38.8625 28.9831 39.1623 29.1072 39.4749 29.1072H41.8322V35.0001C41.8322 36.563 41.2113 38.0618 40.1061 39.167C39.0009 40.2721 37.5019 40.8929 35.939 40.8929C34.376 40.8929 32.877 40.2721 31.7718 39.167C30.6666 38.0618 30.0457 36.563 30.0457 35.0001V29.1072H32.403C32.7156 29.1072 33.0154 28.9831 33.2365 28.7621C33.4575 28.541 33.5817 28.2413 33.5817 27.9287C33.5817 27.6161 33.4575 27.3163 33.2365 27.0953C33.0154 26.8743 32.7156 26.7501 32.403 26.7501H28.8671C28.5545 26.7501 28.2547 26.8743 28.0337 27.0953C27.8126 27.3163 27.6885 27.6161 27.6885 27.9287V35.0001C27.6908 36.9823 28.4067 38.8973 29.7053 40.395C31.0039 41.8926 32.7983 42.8726 34.7603 43.1558C34.9135 45.8665 35.6797 47.8701 37.0469 49.0486C38.1135 49.9398 39.4777 50.3945 40.8657 50.3215C41.2992 50.3219 41.7323 50.2943 42.1622 50.239C48.8334 49.2726 52.44 41.659 52.44 35.0001C52.44 30.624 50.7015 26.4272 47.607 23.3328C44.5124 20.2385 40.3153 18.5001 35.939 18.5001Z" fill="white"/>
<path d="M25.3311 42.0715C24.8255 42.0791 24.3242 42.1666 23.846 42.3308C22.2303 39.6672 21.5393 36.5448 21.8803 33.4482C22.2213 30.3517 23.5752 27.4544 25.7318 25.2062C25.8524 25.0978 25.9493 24.9657 26.0164 24.8181C26.0836 24.6705 26.1196 24.5107 26.1222 24.3485C26.1247 24.1864 26.0938 24.0255 26.0314 23.8759C25.9689 23.7263 25.8762 23.5912 25.7592 23.479C25.6421 23.3668 25.5031 23.28 25.351 23.2239C25.1988 23.1679 25.0367 23.1439 24.8749 23.1533C24.713 23.1628 24.5548 23.2055 24.4102 23.2789C24.2656 23.3523 24.1377 23.4547 24.0345 23.5798C21.5101 26.2105 19.9281 29.6033 19.5358 33.2281C19.1434 36.8528 19.9628 40.5055 21.8658 43.6154C21.1381 44.4163 20.7081 45.443 20.6479 46.5234C20.5876 47.6037 20.9009 48.6719 21.5351 49.5486C22.1693 50.4254 23.0858 51.0573 24.1308 51.3383C25.1757 51.6193 26.2856 51.5323 27.274 51.0919C28.2624 50.6515 29.0693 49.8845 29.559 48.9197C30.0488 47.9548 30.1918 46.8509 29.964 45.7931C29.7362 44.7354 29.1514 43.7881 28.3078 43.1105C27.4642 42.4328 26.4131 42.066 25.3311 42.0715ZM25.3311 49.1429C24.8648 49.1429 24.4091 49.0047 24.0214 48.7457C23.6338 48.4867 23.3316 48.1185 23.1532 47.6878C22.9748 47.2571 22.9281 46.7832 23.0191 46.3259C23.11 45.8687 23.3345 45.4487 23.6642 45.119C23.9939 44.7894 24.4139 44.5649 24.8712 44.4739C25.3284 44.383 25.8024 44.4297 26.2332 44.6081C26.6639 44.7865 27.0321 45.0886 27.2911 45.4762C27.5501 45.8639 27.6884 46.3196 27.6884 46.7858C27.6884 47.4109 27.44 48.0105 26.9979 48.4525C26.5558 48.8946 25.9563 49.1429 25.3311 49.1429Z" fill="white"/>
</g>
</g>
</g>
<defs>
<clipPath id="clip0_1_52">
<rect width="33" height="33" fill="white" transform="translate(19.4399 18.5)"/>
</clipPath>
<clipPath id="clip1_1_52">
<rect width="33" height="33" fill="white" transform="translate(19.4399 18.5)"/>
</clipPath>
<clipPath id="clip2_1_52">
<rect width="33" height="33" fill="white" transform="translate(19.4399 18.5)"/>
</clipPath>
</defs>
</svg>
