<svg width="218" height="90" viewBox="0 0 218 90" fill="none" xmlns="http://www.w3.org/2000/svg">
<g filter="url(#filter0_d_1_78)">
<rect x="20.5498" y="16" width="177.42" height="50" rx="24" fill="white" fill-opacity="0.01" shape-rendering="crispEdges"/>
<rect x="20.5498" y="16" width="177.42" height="50" rx="24" fill="url(#paint0_linear_1_78)"/>
<path d="M61.7783 47V35.8182H65.8732C66.6667 35.8182 67.3237 35.9492 67.8442 36.2113C68.3647 36.4697 68.7542 36.821 69.0126 37.265C69.271 37.7055 69.4003 38.2023 69.4003 38.7556C69.4003 39.2215 69.3147 39.6146 69.1436 39.9349C68.9726 40.2516 68.7433 40.5064 68.4557 40.6993C68.1718 40.8886 67.8588 41.0269 67.5166 41.1143V41.2235C67.8879 41.2417 68.25 41.3618 68.6031 41.5838C68.9598 41.8022 69.2547 42.1134 69.4876 42.5174C69.7206 42.9215 69.837 43.4129 69.837 43.9916C69.837 44.5631 69.7024 45.0763 69.433 45.5313C69.1673 45.9826 68.756 46.3412 68.1991 46.6069C67.6422 46.869 66.9306 47 66.0643 47H61.7783ZM63.4654 45.5531H65.9005C66.7085 45.5531 67.2873 45.3966 67.6367 45.0836C67.9862 44.7706 68.1609 44.3793 68.1609 43.9097C68.1609 43.5566 68.0717 43.2327 67.8933 42.9379C67.715 42.643 67.4602 42.4082 67.129 42.2335C66.8014 42.0588 66.4119 41.9715 65.9605 41.9715H63.4654V45.5531ZM63.4654 40.6556H65.7258C66.1043 40.6556 66.4446 40.5828 66.7468 40.4372C67.0525 40.2916 67.2946 40.0878 67.4729 39.8257C67.6549 39.56 67.7459 39.247 67.7459 38.8866C67.7459 38.4244 67.5839 38.0367 67.26 37.7237C66.936 37.4106 66.4392 37.2541 65.7694 37.2541H63.4654V40.6556ZM75.2396 47.1693C74.4534 47.1693 73.7672 46.9891 73.1812 46.6287C72.5952 46.2684 72.1402 45.7642 71.8163 45.1163C71.4923 44.4684 71.3303 43.7113 71.3303 42.845C71.3303 41.9751 71.4923 41.2144 71.8163 40.5628C72.1402 39.9113 72.5952 39.4053 73.1812 39.045C73.7672 38.6846 74.4534 38.5044 75.2396 38.5044C76.0258 38.5044 76.7119 38.6846 77.298 39.045C77.884 39.4053 78.339 39.9113 78.6629 40.5628C78.9869 41.2144 79.1489 41.9751 79.1489 42.845C79.1489 43.7113 78.9869 44.4684 78.6629 45.1163C78.339 45.7642 77.884 46.2684 77.298 46.6287C76.7119 46.9891 76.0258 47.1693 75.2396 47.1693ZM75.2451 45.7988C75.7546 45.7988 76.1769 45.6642 76.5117 45.3948C76.8466 45.1254 77.0941 44.7669 77.2543 44.3192C77.4181 43.8715 77.5 43.3783 77.5 42.8396C77.5 42.3045 77.4181 41.8131 77.2543 41.3654C77.0941 40.9141 76.8466 40.5519 76.5117 40.2789C76.1769 40.0059 75.7546 39.8694 75.2451 39.8694C74.7318 39.8694 74.306 40.0059 73.9674 40.2789C73.6326 40.5519 73.3832 40.9141 73.2194 41.3654C73.0593 41.8131 72.9792 42.3045 72.9792 42.8396C72.9792 43.3783 73.0593 43.8715 73.2194 44.3192C73.3832 44.7669 73.6326 45.1254 73.9674 45.3948C74.306 45.6642 74.7318 45.7988 75.2451 45.7988ZM84.5036 47.1693C83.7174 47.1693 83.0313 46.9891 82.4453 46.6287C81.8592 46.2684 81.4042 45.7642 81.0803 45.1163C80.7563 44.4684 80.5944 43.7113 80.5944 42.845C80.5944 41.9751 80.7563 41.2144 81.0803 40.5628C81.4042 39.9113 81.8592 39.4053 82.4453 39.045C83.0313 38.6846 83.7174 38.5044 84.5036 38.5044C85.2899 38.5044 85.976 38.6846 86.562 39.045C87.148 39.4053 87.603 39.9113 87.927 40.5628C88.2509 41.2144 88.4129 41.9751 88.4129 42.845C88.4129 43.7113 88.2509 44.4684 87.927 45.1163C87.603 45.7642 87.148 46.2684 86.562 46.6287C85.976 46.9891 85.2899 47.1693 84.5036 47.1693ZM84.5091 45.7988C85.0187 45.7988 85.4409 45.6642 85.7758 45.3948C86.1107 45.1254 86.3582 44.7669 86.5183 44.3192C86.6821 43.8715 86.764 43.3783 86.764 42.8396C86.764 42.3045 86.6821 41.8131 86.5183 41.3654C86.3582 40.9141 86.1107 40.5519 85.7758 40.2789C85.4409 40.0059 85.0187 39.8694 84.5091 39.8694C83.9959 39.8694 83.57 40.0059 83.2315 40.2789C82.8966 40.5519 82.6473 40.9141 82.4835 41.3654C82.3233 41.8131 82.2432 42.3045 82.2432 42.8396C82.2432 43.3783 82.3233 43.8715 82.4835 44.3192C82.6473 44.7669 82.8966 45.1254 83.2315 45.3948C83.57 45.6642 83.9959 45.7988 84.5091 45.7988ZM91.7366 44.1554L91.7257 42.1626H92.0096L95.351 38.6136H97.3057L93.4947 42.6539H93.2381L91.7366 44.1554ZM90.2351 47V35.8182H91.8676V47H90.2351ZM95.5312 47L92.5283 43.0143L93.653 41.8732L97.535 47H95.5312ZM112.019 35.8182V47H110.468L104.784 38.7993H104.681V47H102.993V35.8182H104.555L110.244 44.0298H110.348V35.8182H112.019ZM117.881 47.1693C117.095 47.1693 116.409 46.9891 115.823 46.6287C115.237 46.2684 114.782 45.7642 114.458 45.1163C114.134 44.4684 113.972 43.7113 113.972 42.845C113.972 41.9751 114.134 41.2144 114.458 40.5628C114.782 39.9113 115.237 39.4053 115.823 39.045C116.409 38.6846 117.095 38.5044 117.881 38.5044C118.667 38.5044 119.354 38.6846 119.94 39.045C120.526 39.4053 120.981 39.9113 121.305 40.5628C121.628 41.2144 121.79 41.9751 121.79 42.845C121.79 43.7113 121.628 44.4684 121.305 45.1163C120.981 45.7642 120.526 46.2684 119.94 46.6287C119.354 46.9891 118.667 47.1693 117.881 47.1693ZM117.887 45.7988C118.396 45.7988 118.818 45.6642 119.153 45.3948C119.488 45.1254 119.736 44.7669 119.896 44.3192C120.06 43.8715 120.142 43.3783 120.142 42.8396C120.142 42.3045 120.06 41.8131 119.896 41.3654C119.736 40.9141 119.488 40.5519 119.153 40.2789C118.818 40.0059 118.396 39.8694 117.887 39.8694C117.373 39.8694 116.948 40.0059 116.609 40.2789C116.274 40.5519 116.025 40.9141 115.861 41.3654C115.701 41.8131 115.621 42.3045 115.621 42.8396C115.621 43.3783 115.701 43.8715 115.861 44.3192C116.025 44.7669 116.274 45.1254 116.609 45.3948C116.948 45.6642 117.373 45.7988 117.887 45.7988ZM125.176 47L122.708 38.6136H124.395L126.038 44.7724H126.12L127.769 38.6136H129.456L131.094 44.7451H131.176L132.808 38.6136H134.496L132.033 47H130.368L128.664 40.945H128.539L126.835 47H125.176Z" fill="white"/>
<g clip-path="url(#clip0_1_78)">
<g clip-path="url(#clip1_1_78)">
<g clip-path="url(#clip2_1_78)">
<g clip-path="url(#clip3_1_78)">
<path d="M157.77 41.4624L152.997 45.9624C152.869 46.0795 152.696 46.1443 152.518 46.1428C152.339 46.1414 152.168 46.0738 152.042 45.9546C151.915 45.8354 151.843 45.6741 151.842 45.5056C151.84 45.337 151.909 45.1746 152.033 45.0534L155.642 41.6507H143.652C143.471 41.6507 143.297 41.583 143.169 41.4625C143.042 41.3419 142.97 41.1784 142.97 41.0079C142.97 40.8374 143.042 40.6739 143.169 40.5533C143.297 40.4328 143.471 40.365 143.652 40.365H155.642L152.033 36.9624C151.968 36.9031 151.916 36.8322 151.88 36.7537C151.845 36.6753 151.826 36.5909 151.825 36.5056C151.824 36.4202 151.842 36.3356 151.876 36.2566C151.91 36.1776 151.961 36.1058 152.025 36.0454C152.089 35.9851 152.165 35.9373 152.249 35.905C152.333 35.8727 152.422 35.8564 152.513 35.8572C152.603 35.8579 152.693 35.8756 152.776 35.9093C152.859 35.943 152.934 35.992 152.997 36.0534L157.77 40.5534C157.898 40.6739 157.97 40.8374 157.97 41.0079C157.97 41.1784 157.898 41.3418 157.77 41.4624Z" fill="white"/>
</g>
</g>
</g>
</g>
</g>
<defs>
<filter id="filter0_d_1_78" x="0.549805" y="0" width="217.42" height="90" filterUnits="userSpaceOnUse" color-interpolation-filters="sRGB">
<feFlood flood-opacity="0" result="BackgroundImageFix"/>
<feColorMatrix in="SourceAlpha" type="matrix" values="0 0 0 0 0 0 0 0 0 0 0 0 0 0 0 0 0 0 127 0" result="hardAlpha"/>
<feOffset dy="4"/>
<feGaussianBlur stdDeviation="10"/>
<feComposite in2="hardAlpha" operator="out"/>
<feColorMatrix type="matrix" values="0 0 0 0 0.152941 0 0 0 0 0.278431 0 0 0 0 0.376471 0 0 0 0.17 0"/>
<feBlend mode="normal" in2="BackgroundImageFix" result="effect1_dropShadow_1_78"/>
<feBlend mode="normal" in="SourceGraphic" in2="effect1_dropShadow_1_78" result="shape"/>
</filter>
<linearGradient id="paint0_linear_1_78" x1="50.8645" y1="-15.3917" x2="167.655" y2="97.3917" gradientUnits="userSpaceOnUse">
<stop stop-color="#307BC4"/>
<stop offset="1" stop-color="#274760"/>
</linearGradient>
<clipPath id="clip0_1_78">
<rect width="15" height="11" fill="white" transform="translate(142.97 35.5)"/>
</clipPath>
<clipPath id="clip1_1_78">
<rect width="15" height="11" fill="white" transform="translate(142.97 35.5)"/>
</clipPath>
<clipPath id="clip2_1_78">
<rect width="15" height="11" fill="white" transform="translate(142.97 35.5)"/>
</clipPath>
<clipPath id="clip3_1_78">
<rect width="15" height="10.2857" fill="white" transform="translate(142.97 35.8571)"/>
</clipPath>
</defs>
</svg>
