<svg width="46" height="46" viewBox="0 0 46 46" fill="none" xmlns="http://www.w3.org/2000/svg">
<rect x="0.169922" y="0.830078" width="45" height="45" rx="22.5" fill="#307BC4"/>
<g clip-path="url(#clip0_1_154)">
<g clip-path="url(#clip1_1_154)">
<g clip-path="url(#clip2_1_154)">
<mask id="mask0_1_154" style="mask-type:luminance" maskUnits="userSpaceOnUse" x="9" y="10" width="27" height="27">
<path d="M9.9187 10.3301H35.9187V36.3301H9.9187V10.3301Z" fill="black"/>
</mask>
<g mask="url(#mask0_1_154)">
<path d="M29.8668 15.7126C29.8668 18.7595 27.3622 20.4907 22.9189 24.3455C18.4755 20.4907 15.9709 18.7595 15.9709 15.7126C15.9709 14.2121 16.9404 11.6501 19.7221 11.6501C21.4299 11.6501 22.3765 12.8968 22.9189 13.8891C23.4612 12.8968 24.4078 11.6501 26.1155 11.6501C28.8973 11.6501 29.8668 14.2121 29.8668 15.7126Z" stroke="white" stroke-miterlimit="10" stroke-linecap="round" stroke-linejoin="round"/>
<path d="M30.3328 28.0236L32.9333 25.4226C33.209 25.1469 33.3796 24.766 33.3796 24.3455C33.3796 23.6823 32.9561 23.1181 32.364 22.9089" stroke="white" stroke-miterlimit="10" stroke-linecap="round" stroke-linejoin="round"/>
<path d="M13.4734 22.909C13.6323 22.8526 13.803 22.8222 13.9812 22.8222C14.4017 22.8222 14.7825 22.9928 15.0583 23.2685L16.1988 24.4086C16.9082 25.118 18.6099 25.7802 19.6078 25.8802L19.6453 25.8843C20.9271 26.0128 21.9031 27.0919 21.9031 28.3802V35.0097H16.5203V31.9628L13.7948 30.6003C11.7306 29.5679 10.4265 27.458 10.4265 25.15V18.2518C10.4265 17.4104 11.1085 16.7284 11.95 16.7284C12.7914 16.7284 13.4734 17.4104 13.4734 18.2518V22.909Z" stroke="white" stroke-miterlimit="10" stroke-linecap="round" stroke-linejoin="round"/>
<path d="M15.5046 28.0236L12.9041 25.4226C12.6284 25.1469 12.4578 24.766 12.4578 24.3455C12.4578 23.6823 12.8813 23.1181 13.4734 22.9089" stroke="white" stroke-miterlimit="10" stroke-linecap="round" stroke-linejoin="round"/>
<path d="M33.7351 29.8299C33.7351 30.1103 33.5077 30.3377 33.2273 30.3377C32.9469 30.3377 32.7195 30.1103 32.7195 29.8299C32.7195 29.5495 32.9469 29.3221 33.2273 29.3221C33.5077 29.3221 33.7351 29.5495 33.7351 29.8299Z" fill="white"/>
<path d="M34.6712 28.0599C35.1479 27.1829 35.4109 26.1864 35.4109 25.1499V18.2517C35.4109 17.4103 34.7289 16.7283 33.8875 16.7283C33.046 16.7283 32.364 17.4103 32.364 18.2517V22.9089C32.2051 22.8525 32.0344 22.822 31.8562 22.822C31.4357 22.822 31.0549 22.9927 30.7791 23.2685L29.6386 24.4085C28.9292 25.1179 27.2275 25.7801 26.2297 25.8801L26.1921 25.8842C24.9103 26.0127 23.9343 27.0918 23.9343 28.3801V35.0095H29.3171V31.9627L31.26 30.9914" stroke="white" stroke-miterlimit="10" stroke-linecap="round" stroke-linejoin="round"/>
</g>
</g>
</g>
</g>
<defs>
<clipPath id="clip0_1_154">
<rect width="27" height="26" fill="white" transform="translate(9.16992 10.3301)"/>
</clipPath>
<clipPath id="clip1_1_154">
<rect width="27" height="26" fill="white" transform="translate(9.16992 10.3301)"/>
</clipPath>
<clipPath id="clip2_1_154">
<rect width="27" height="26" fill="white" transform="translate(9.16992 10.3301)"/>
</clipPath>
</defs>
</svg>
