<svg width="46" height="46" viewBox="0 0 46 46" fill="none" xmlns="http://www.w3.org/2000/svg">
<rect x="0.139893" y="0.830017" width="45" height="45" rx="22.5" fill="#307BC4"/>
<g clip-path="url(#clip0_1_120)">
<g clip-path="url(#clip1_1_120)">
<g clip-path="url(#clip2_1_120)">
<path d="M24.265 36.33H21.015C20.2566 36.33 19.39 35.68 19.39 34.38V32.105C19.39 31.0216 18.8483 30.0466 17.9816 29.2883C16.0316 27.7716 15.0566 25.605 15.0566 23.2216C15.165 19.105 18.5233 15.855 22.5316 15.7466C24.59 15.7466 26.54 16.505 27.9483 17.9133C29.3566 19.3216 30.2233 21.2716 30.2233 23.33C30.2233 25.605 29.2483 27.7716 27.4066 29.18C26.4316 29.9383 25.89 31.13 25.89 32.2133V34.705C25.89 35.5716 25.1316 36.33 24.265 36.33ZM22.64 16.83C19.1733 16.83 16.2483 19.755 16.14 23.2216C16.14 25.28 17.0066 27.23 18.6316 28.4216C19.8233 29.3966 20.4733 30.6966 20.4733 32.105V34.38C20.4733 34.5966 20.4733 35.2466 21.015 35.2466H24.265C24.59 35.2466 24.8066 35.03 24.8066 34.705V32.2133C24.8066 30.805 25.565 29.2883 26.7566 28.3133C28.2733 27.1216 29.14 25.28 29.14 23.33C29.14 21.5966 28.49 19.9716 27.19 18.6716C25.9983 17.48 24.3733 16.83 22.64 16.83Z" fill="white"/>
<path d="M25.3482 33.08H19.9316C19.6066 33.08 19.3899 32.8633 19.3899 32.5383C19.3899 32.2133 19.6066 31.9966 19.9316 31.9966H25.3482C25.6732 31.9966 25.8899 32.2133 25.8899 32.5383C25.8899 32.8633 25.6732 33.08 25.3482 33.08Z" fill="white"/>
<path d="M22.6397 13.58C22.3147 13.58 22.0981 13.3633 22.0981 13.0383V10.8717C22.0981 10.5467 22.3147 10.33 22.6397 10.33C22.9647 10.33 23.1814 10.5467 23.1814 10.8717V13.0383C23.1814 13.3633 22.9647 13.58 22.6397 13.58Z" fill="white"/>
<path d="M29.8983 16.6134C29.79 16.6134 29.5733 16.6134 29.465 16.5051C29.2483 16.2884 29.2483 15.9634 29.465 15.7467L30.9817 14.2301C31.1983 14.0134 31.5233 14.0134 31.74 14.2301C31.9567 14.4467 31.9567 14.7717 31.74 14.9884L30.2233 16.5051C30.2233 16.5051 30.0067 16.6134 29.8983 16.6134Z" fill="white"/>
<path d="M35.0982 23.8717H32.9316C32.6066 23.8717 32.3899 23.655 32.3899 23.33C32.3899 23.005 32.6066 22.7884 32.9316 22.7884H35.0982C35.4232 22.7884 35.6399 23.005 35.6399 23.33C35.6399 23.655 35.4232 23.8717 35.0982 23.8717Z" fill="white"/>
<path d="M31.415 32.6467C31.3067 32.6467 31.09 32.6467 30.9817 32.5384L29.465 31.0217C29.2483 30.805 29.2483 30.48 29.465 30.2634C29.6817 30.0467 30.0067 30.0467 30.2233 30.2634L31.74 31.78C31.9567 31.9967 31.9567 32.3217 31.74 32.5384C31.74 32.6467 31.6317 32.6467 31.415 32.6467Z" fill="white"/>
<path d="M13.8651 32.6467C13.7568 32.6467 13.5401 32.6467 13.4318 32.5384C13.2151 32.3217 13.2151 31.9967 13.4318 31.78L14.9485 30.2634C15.1651 30.0467 15.4901 30.0467 15.7068 30.2634C15.9235 30.48 15.9235 30.805 15.7068 31.0217L14.1901 32.5384C14.0818 32.6467 13.9735 32.6467 13.8651 32.6467Z" fill="white"/>
<path d="M12.3482 23.8717H10.1816C9.85656 23.8717 9.63989 23.655 9.63989 23.33C9.63989 23.005 9.85656 22.7884 10.1816 22.7884H12.3482C12.6732 22.7884 12.8899 23.005 12.8899 23.33C12.8899 23.655 12.6732 23.8717 12.3482 23.8717Z" fill="white"/>
<path d="M15.3818 16.6133C15.2735 16.6133 15.0568 16.6133 14.9485 16.505L13.4318 14.88C13.2151 14.6633 13.2151 14.3383 13.4318 14.1217C13.6485 13.905 13.9735 13.905 14.1901 14.1217L15.7068 15.6383C15.9235 15.855 15.9235 16.18 15.7068 16.3967C15.5985 16.505 15.4901 16.6133 15.3818 16.6133Z" fill="white"/>
<path d="M26.9731 23.8717C26.6481 23.8717 26.4314 23.655 26.4314 23.33C26.4314 21.2717 24.6981 19.5383 22.6397 19.5383C22.3147 19.5383 22.0981 19.3217 22.0981 18.9967C22.0981 18.6717 22.3147 18.455 22.6397 18.455C25.3481 18.455 27.5147 20.6217 27.5147 23.33C27.5147 23.655 27.2981 23.8717 26.9731 23.8717Z" fill="white"/>
</g>
</g>
</g>
<defs>
<clipPath id="clip0_1_120">
<rect width="26" height="26" fill="white" transform="translate(9.63989 10.33)"/>
</clipPath>
<clipPath id="clip1_1_120">
<rect width="26" height="26" fill="white" transform="translate(9.63989 10.33)"/>
</clipPath>
<clipPath id="clip2_1_120">
<rect width="26" height="26" fill="white" transform="translate(9.63989 10.33)"/>
</clipPath>
</defs>
</svg>
