<svg xmlnsXlink="http://www.w3.org/1999/xlink" id="wave" style={{ transform: 'rotate(0deg)', transition: '0.3s' }} viewBox="0 0 1440 490" version="1.1" xmlns="http://www.w3.org/2000/svg"><defs><linearGradient id="sw-gradient-0" x1="0" x2="0" y1="1" y2="0"><stop stopColor="rgba(153, 226, 180, 1)" offset="0%" /><stop stopColor="rgba(20, 116, 111, 1)" offset="100%" /></linearGradient></defs><path style={{ transform: "translate(0, 0px); opacity:1" }} fill="url(#sw-gradient-0)" d="M0,392L40,367.5C80,343,160,294,240,285.8C320,278,400,310,480,334.8C560,359,640,376,720,367.5C800,359,880,327,960,326.7C1040,327,1120,359,1200,326.7C1280,294,1360,196,1440,179.7C1520,163,1600,229,1680,253.2C1760,278,1840,261,1920,228.7C2000,196,2080,147,2160,122.5C2240,98,2320,98,2400,106.2C2480,114,2560,131,2640,163.3C2720,196,2800,245,2880,277.7C2960,310,3040,327,3120,285.8C3200,245,3280,147,3360,130.7C3440,114,3520,180,3600,212.3C3680,245,3760,245,3840,236.8C3920,229,4000,212,4080,187.8C4160,163,4240,131,4320,122.5C4400,114,4480,131,4560,171.5C4640,212,4720,278,4800,326.7C4880,376,4960,408,5040,367.5C5120,327,5200,212,5280,187.8C5360,163,5440,229,5520,228.7C5600,229,5680,163,5720,130.7L5760,98L5760,490L5720,490C5680,490,5600,490,5520,490C5440,490,5360,490,5280,490C5200,490,5120,490,5040,490C4960,490,4880,490,4800,490C4720,490,4640,490,4560,490C4480,490,4400,490,4320,490C4240,490,4160,490,4080,490C4000,490,3920,490,3840,490C3760,490,3680,490,3600,490C3520,490,3440,490,3360,490C3280,490,3200,490,3120,490C3040,490,2960,490,2880,490C2800,490,2720,490,2640,490C2560,490,2480,490,2400,490C2320,490,2240,490,2160,490C2080,490,2000,490,1920,490C1840,490,1760,490,1680,490C1600,490,1520,490,1440,490C1360,490,1280,490,1200,490C1120,490,1040,490,960,490C880,490,800,490,720,490C640,490,560,490,480,490C400,490,320,490,240,490C160,490,80,490,40,490L0,490Z" /><defs><linearGradient id="sw-gradient-1" x1="0" x2="0" y1="1" y2="0"><stop stopColor="rgba(120, 198, 163, 1)" offset="0%" /><stop stopColor="rgba(3, 102, 102, 1)" offset="100%" /></linearGradient></defs><path style={{ transform: "translate(0, 50px)", opacity: "0.9" }} fill="url(#sw-gradient-1)" d="M0,392L40,392C80,392,160,392,240,383.8C320,376,400,359,480,343C560,327,640,310,720,277.7C800,245,880,196,960,196C1040,196,1120,245,1200,277.7C1280,310,1360,327,1440,285.8C1520,245,1600,147,1680,147C1760,147,1840,245,1920,302.2C2000,359,2080,376,2160,318.5C2240,261,2320,131,2400,65.3C2480,0,2560,0,2640,65.3C2720,131,2800,261,2880,326.7C2960,392,3040,392,3120,334.8C3200,278,3280,163,3360,171.5C3440,180,3520,310,3600,334.8C3680,359,3760,278,3840,253.2C3920,229,4000,261,4080,269.5C4160,278,4240,261,4320,220.5C4400,180,4480,114,4560,73.5C4640,33,4720,16,4800,24.5C4880,33,4960,65,5040,138.8C5120,212,5200,327,5280,334.8C5360,343,5440,245,5520,212.3C5600,180,5680,212,5720,228.7L5760,245L5760,490L5720,490C5680,490,5600,490,5520,490C5440,490,5360,490,5280,490C5200,490,5120,490,5040,490C4960,490,4880,490,4800,490C4720,490,4640,490,4560,490C4480,490,4400,490,4320,490C4240,490,4160,490,4080,490C4000,490,3920,490,3840,490C3760,490,3680,490,3600,490C3520,490,3440,490,3360,490C3280,490,3200,490,3120,490C3040,490,2960,490,2880,490C2800,490,2720,490,2640,490C2560,490,2480,490,2400,490C2320,490,2240,490,2160,490C2080,490,2000,490,1920,490C1840,490,1760,490,1680,490C1600,490,1520,490,1440,490C1360,490,1280,490,1200,490C1120,490,1040,490,960,490C880,490,800,490,720,490C640,490,560,490,480,490C400,490,320,490,240,490C160,490,80,490,40,490L0,490Z" /></svg>
