<svg width="70" height="70" viewBox="0 0 70 70" fill="none" xmlns="http://www.w3.org/2000/svg">
<rect width="70" height="70" rx="35" fill="#307BC4"/>
<g clip-path="url(#clip0_1_41)">
<g clip-path="url(#clip1_1_41)">
<g clip-path="url(#clip2_1_41)">
<path d="M24.8899 40.6009C28.2562 44.6096 32.3083 47.7659 36.9334 49.9992C38.6943 50.8305 41.0492 51.8169 43.6728 51.9859C43.8355 51.993 43.9911 52 44.1538 52C45.9146 52 47.329 51.3941 48.4817 50.1471C48.4888 50.1401 48.5029 50.126 48.51 50.1119C48.9202 49.6188 49.3869 49.1749 49.8749 48.7029C50.2073 48.3858 50.5467 48.0547 50.872 47.7165C52.3784 46.1525 52.3784 44.1658 50.8579 42.6511L46.6077 38.4169C45.8863 37.6701 45.0236 37.2756 44.1184 37.2756C43.2132 37.2756 42.3433 37.6701 41.6008 38.4099L39.0691 40.932C38.8357 40.7982 38.5953 40.6784 38.3689 40.5657C38.0861 40.4248 37.8244 40.2909 37.591 40.143C35.2856 38.6846 33.1923 36.7824 31.191 34.3377C30.1797 33.0626 29.5008 31.9917 29.027 30.8997C29.6917 30.3009 30.3141 29.6738 30.9152 29.0609C31.1273 28.8425 31.3466 28.6241 31.5658 28.4057C32.3296 27.6448 32.7397 26.7642 32.7397 25.8695C32.7397 24.9747 32.3366 24.094 31.5658 23.3332L29.4584 21.2337C29.2109 20.9872 28.9775 20.7476 28.737 20.501C28.2703 20.022 27.7824 19.5288 27.3014 19.085C26.573 18.3734 25.7174 18 24.8122 18C23.914 18 23.0513 18.3734 22.2946 19.092L19.6497 21.7269C18.6879 22.685 18.1434 23.8475 18.0302 25.1931C17.8959 26.8769 18.207 28.6664 19.0132 30.8293C20.2508 34.1757 22.1178 37.2826 24.8899 40.6009ZM19.7558 25.3411C19.8406 24.4041 20.2013 23.622 20.8802 22.9457L23.5109 20.3249C23.9211 19.9304 24.3737 19.7261 24.8122 19.7261C25.2435 19.7261 25.682 19.9304 26.0851 20.339C26.5589 20.7758 27.0044 21.2337 27.4853 21.7198C27.7258 21.9664 27.9733 22.213 28.2208 22.4666L30.3282 24.5661C30.7667 25.0029 30.993 25.4467 30.993 25.8835C30.993 26.3204 30.7667 26.7642 30.3282 27.201C30.109 27.4194 29.8897 27.6448 29.6706 27.8632C29.0128 28.5255 28.3976 29.1525 27.7187 29.7514C27.7046 29.7654 27.6975 29.7725 27.6833 29.7866C27.0964 30.3713 27.1883 30.9279 27.3298 31.3506C27.3368 31.3717 27.3439 31.3858 27.351 31.4069C27.8955 32.7103 28.6522 33.9502 29.8332 35.4298C31.9547 38.0365 34.1894 40.0584 36.6505 41.6154C36.9545 41.8127 37.2799 41.9677 37.5839 42.1227C37.8668 42.2636 38.1285 42.3974 38.3619 42.5454C38.3901 42.5594 38.4114 42.5736 38.4397 42.5877C38.673 42.7074 38.8993 42.7638 39.1256 42.7638C39.6914 42.7638 40.0591 42.4045 40.1793 42.2847L42.8242 39.6498C43.2344 39.2412 43.6799 39.0228 44.1184 39.0228C44.6558 39.0228 45.0943 39.3539 45.3701 39.6498L49.6345 43.891C50.4831 44.7364 50.476 45.6523 49.6133 46.547C49.3162 46.8641 49.0051 47.167 48.6726 47.4841C48.1777 47.9631 47.6614 48.4563 47.1947 49.0129C46.3814 49.8864 45.4126 50.2951 44.1608 50.2951C44.0406 50.2951 43.9133 50.288 43.7931 50.281C41.4735 50.133 39.3166 49.2313 37.6971 48.4633C33.2984 46.3427 29.4371 43.3344 26.2336 39.5159C23.5958 36.3527 21.8207 33.4078 20.6468 30.2516C19.9184 28.3141 19.6426 26.7572 19.7558 25.3411Z" fill="white"/>
</g>
</g>
</g>
<defs>
<clipPath id="clip0_1_41">
<rect width="34" height="34" fill="white" transform="translate(18 18)"/>
</clipPath>
<clipPath id="clip1_1_41">
<rect width="34" height="34" fill="white" transform="translate(18 18)"/>
</clipPath>
<clipPath id="clip2_1_41">
<rect width="34" height="34" fill="white" transform="translate(18 18)"/>
</clipPath>
</defs>
</svg>
