<svg width="46" height="46" viewBox="0 0 46 46" fill="none" xmlns="http://www.w3.org/2000/svg">
<rect x="0.919922" y="0.830017" width="45" height="45" rx="22.5" fill="#307BC4"/>
<g clip-path="url(#clip0_1_141)">
<g clip-path="url(#clip1_1_141)">
<g clip-path="url(#clip2_1_141)">
<path d="M17.4724 21.1326C17.4724 21.191 17.4844 21.2488 17.5077 21.3028C17.531 21.3567 17.5652 21.4057 17.6083 21.447C17.6515 21.4883 17.7027 21.5211 17.759 21.5434C17.8153 21.5658 17.8757 21.5773 17.9367 21.5772H20.6539C20.7149 21.5773 20.7753 21.5658 20.8316 21.5434C20.8879 21.5211 20.9391 21.4883 20.9822 21.447C21.0254 21.4057 21.0596 21.3567 21.0829 21.3028C21.1062 21.2488 21.1182 21.191 21.1182 21.1326V18.9351C21.7261 18.8307 22.2762 18.5249 22.6725 18.0713C23.0688 17.6176 23.2859 17.0449 23.2859 16.4534C23.2859 15.8619 23.0688 15.2892 22.6725 14.8356C22.2762 14.3819 21.7261 14.0761 21.1182 13.9717V11.7747C21.1182 11.7163 21.1062 11.6585 21.0829 11.6045C21.0596 11.5506 21.0254 11.5015 20.9822 11.4602C20.9391 11.4189 20.8879 11.3862 20.8316 11.3638C20.7753 11.3415 20.7149 11.33 20.6539 11.33H12.4632C11.9215 11.3305 11.4021 11.5369 11.0191 11.9037C10.636 12.2706 10.4205 12.768 10.4199 13.2869V21.1326C10.4199 21.191 10.4319 21.2488 10.4552 21.3028C10.4786 21.3567 10.5128 21.4057 10.5559 21.447C10.599 21.4883 10.6502 21.5211 10.7065 21.5434C10.7629 21.5658 10.8232 21.5773 10.8842 21.5772H13.6015C13.6624 21.5773 13.7228 21.5658 13.7792 21.5434C13.8355 21.5211 13.8867 21.4883 13.9298 21.447C13.9729 21.4057 14.0071 21.3567 14.0304 21.3028C14.0538 21.2488 14.0658 21.191 14.0657 21.1326C14.0707 20.703 14.2523 20.2925 14.5712 19.9904C14.8901 19.6883 15.3205 19.5188 15.7691 19.5188C16.2176 19.5188 16.6481 19.6883 16.967 19.9904C17.2859 20.2925 17.4675 20.703 17.4724 21.1326ZM13.1782 20.6879H11.3485V13.2869C11.3489 13.0038 11.4665 12.7325 11.6754 12.5324C11.8844 12.3323 12.1677 12.2197 12.4632 12.2194H20.1896V14.3773C20.1896 14.4357 20.2016 14.4936 20.225 14.5475C20.2483 14.6015 20.2825 14.6505 20.3256 14.6918C20.3687 14.7331 20.4199 14.7659 20.4762 14.7882C20.5326 14.8106 20.5929 14.8221 20.6539 14.822C21.1023 14.8269 21.5307 15.0009 21.846 15.3063C22.1613 15.6117 22.3381 16.0239 22.3381 16.4534C22.3381 16.883 22.1613 17.2952 21.8459 17.6006C21.5306 17.906 21.1023 18.08 20.6539 18.0848C20.5929 18.0848 20.5325 18.0963 20.4762 18.1186C20.4199 18.141 20.3687 18.1737 20.3256 18.215C20.2825 18.2563 20.2483 18.3053 20.2249 18.3593C20.2016 18.4133 20.1896 18.4711 20.1896 18.5295V20.6879H18.3599C18.2466 20.1091 17.9256 19.5864 17.4525 19.2103C16.9794 18.8343 16.3839 18.6284 15.7691 18.6284C15.1543 18.6284 14.5588 18.8343 14.0857 19.2103C13.6125 19.5864 13.2915 20.1091 13.1782 20.6879Z" fill="white"/>
<path d="M34.3766 16.009H26.1859C26.1249 16.009 26.0645 16.0204 26.0082 16.0428C25.9518 16.0651 25.9007 16.0979 25.8575 16.1392C25.8144 16.1805 25.7802 16.2295 25.7569 16.2835C25.7336 16.3374 25.7216 16.3953 25.7216 16.4537V19.0563C25.7216 19.1147 25.7336 19.1725 25.7569 19.2265C25.7802 19.2805 25.8144 19.3295 25.8575 19.3708C25.9007 19.4121 25.9518 19.4448 26.0082 19.4672C26.0645 19.4895 26.1249 19.501 26.1859 19.501C26.6343 19.5058 27.0627 19.6797 27.3781 19.9852C27.6934 20.2906 27.8703 20.7028 27.8703 21.1324C27.8703 21.5619 27.6934 21.9742 27.378 22.2796C27.0627 22.585 26.6343 22.759 26.1858 22.7637C26.1249 22.7637 26.0645 22.7752 26.0081 22.7976C25.9518 22.8199 25.9006 22.8527 25.8575 22.894C25.8144 22.9353 25.7802 22.9843 25.7569 23.0382C25.7336 23.0922 25.7216 23.15 25.7216 23.2084V25.0828H23.8916C23.7826 24.5007 23.4634 23.9738 22.9898 23.5943C22.5162 23.2149 21.9184 23.0069 21.3009 23.0069C20.6834 23.0069 20.0856 23.2149 19.6121 23.5943C19.1385 23.9738 18.8192 24.5007 18.7102 25.0828H16.4159C16.355 25.0828 16.2946 25.0943 16.2382 25.1166C16.1819 25.1389 16.1307 25.1717 16.0876 25.213C16.0445 25.2543 16.0103 25.3033 15.987 25.3573C15.9636 25.4112 15.9516 25.4691 15.9517 25.5275V33.3732C15.9523 33.892 16.1677 34.3895 16.5508 34.7563C16.9339 35.1232 17.4532 35.3295 17.9949 35.33H34.3766C34.9183 35.3295 35.4377 35.1232 35.8207 34.7563C36.2038 34.3895 36.4193 33.892 36.4199 33.3732V17.9658C36.4193 17.447 36.2038 16.9495 35.8207 16.5827C35.4377 16.2158 34.9183 16.0095 34.3766 16.009ZM28.8177 21.1326C28.8169 20.5413 28.5996 19.969 28.2035 19.5154C27.8074 19.0619 27.2577 18.7559 26.6502 18.6507V16.8984H34.3766C34.6721 16.8987 34.9554 17.0113 35.1644 17.2114C35.3733 17.4115 35.4909 17.6828 35.4913 17.9658V25.0828H33.2383C33.1774 25.0828 33.117 25.0943 33.0607 25.1166C33.0043 25.1389 32.9531 25.1717 32.91 25.213C32.8669 25.2543 32.8327 25.3033 32.8094 25.3573C32.786 25.4112 32.774 25.4691 32.7741 25.5275C32.769 25.957 32.5874 26.3673 32.2685 26.6693C31.9496 26.9714 31.5192 27.1408 31.0707 27.1408C30.6222 27.1408 30.1919 26.9714 29.873 26.6693C29.5541 26.3673 29.3724 25.957 29.3674 25.5274C29.3674 25.469 29.3554 25.4112 29.3321 25.3572C29.3088 25.3033 29.2746 25.2543 29.2314 25.213C29.1883 25.1717 29.1371 25.1389 29.0808 25.1166C29.0245 25.0943 28.9641 25.0828 28.9031 25.0828H26.6502V23.614C27.2576 23.5089 27.8073 23.203 28.2034 22.7495C28.5995 22.296 28.8169 21.7238 28.8177 21.1326ZM16.8802 33.3732V25.9722H19.1334C19.1944 25.9722 19.2548 25.9607 19.3111 25.9384C19.3674 25.916 19.4186 25.8833 19.4617 25.842C19.5049 25.8007 19.5391 25.7516 19.5624 25.6977C19.5857 25.6437 19.5977 25.5859 19.5977 25.5275C19.5984 25.0953 19.7782 24.681 20.0976 24.3757C20.4169 24.0703 20.8497 23.8988 21.3009 23.8988C21.7521 23.8988 22.1849 24.0703 22.5042 24.3757C22.8236 24.681 23.0034 25.0953 23.0041 25.5275C23.0041 25.5859 23.0161 25.6437 23.0394 25.6977C23.0627 25.7516 23.0969 25.8007 23.14 25.842C23.1832 25.8833 23.2344 25.916 23.2907 25.9384C23.347 25.9607 23.4074 25.9722 23.4684 25.9722H25.7216V27.7249C25.1137 27.8293 24.5635 28.1351 24.1672 28.5888C23.771 29.0424 23.5538 29.6151 23.5538 30.2066C23.5538 30.7981 23.771 31.3708 24.1672 31.8245C24.5635 32.2781 25.1137 32.5839 25.7216 32.6883V34.4406H17.9949C17.6994 34.4403 17.4161 34.3277 17.2072 34.1276C16.9982 33.9275 16.8806 33.6562 16.8802 33.3732ZM34.3766 34.4406H26.6502V32.2827C26.6502 32.2243 26.6382 32.1665 26.6149 32.1125C26.5915 32.0585 26.5573 32.0095 26.5142 31.9682C26.4711 31.9269 26.4199 31.8941 26.3636 31.8718C26.3072 31.8495 26.2469 31.838 26.1859 31.838C25.7342 31.838 25.3009 31.6661 24.9815 31.3602C24.6621 31.0542 24.4827 30.6393 24.4827 30.2066C24.4827 29.774 24.6621 29.359 24.9815 29.0531C25.3009 28.7471 25.7342 28.5752 26.1859 28.5752C26.2469 28.5753 26.3072 28.5638 26.3636 28.5414C26.4199 28.5191 26.4711 28.4863 26.5142 28.445C26.5573 28.4037 26.5915 28.3547 26.6149 28.3007C26.6382 28.2468 26.6502 28.189 26.6502 28.1305V26.2558H28.4799C28.5888 26.838 28.9081 27.365 29.3817 27.7445C29.8553 28.1241 30.4532 28.3321 31.0707 28.3321C31.6883 28.3321 32.2862 28.1241 32.7598 27.7445C33.2334 27.365 33.5526 26.838 33.6616 26.2558H35.4913V33.3732C35.4909 33.6562 35.3733 33.9275 35.1644 34.1276C34.9554 34.3277 34.6721 34.4403 34.3766 34.4406Z" fill="white"/>
</g>
</g>
</g>
<defs>
<clipPath id="clip0_1_141">
<rect width="26" height="24" fill="white" transform="translate(10.4199 11.33)"/>
</clipPath>
<clipPath id="clip1_1_141">
<rect width="26" height="24" fill="white" transform="translate(10.4199 11.33)"/>
</clipPath>
<clipPath id="clip2_1_141">
<rect width="26" height="24" fill="white" transform="translate(10.4199 11.33)"/>
</clipPath>
</defs>
</svg>
