<svg width="71" height="70" viewBox="0 0 71 70" fill="none" xmlns="http://www.w3.org/2000/svg">
<rect x="0.890137" width="70" height="70" rx="35" fill="#307BC4"/>
<g clip-path="url(#clip0_1_62)">
<g clip-path="url(#clip1_1_62)">
<g clip-path="url(#clip2_1_62)">
<mask id="mask0_1_62" style="mask-type:luminance" maskUnits="userSpaceOnUse" x="19" y="18" width="34" height="34">
<path d="M19.3901 18.5H52.3901V51.5H19.3901V18.5Z" fill="black"/>
</mask>
<g mask="url(#mask0_1_62)">
<path d="M35.8901 50.5332C32.0229 44.7324 25.2554 36.8691 25.2554 30.1016C25.2554 24.2376 30.0261 19.4668 35.8901 19.4668C41.7541 19.4668 46.5249 24.2376 46.5249 30.1016C46.5249 36.8691 39.7573 44.7324 35.8901 50.5332Z" stroke="white" stroke-width="2" stroke-miterlimit="10" stroke-linecap="round" stroke-linejoin="round"/>
<path d="M35.8902 34.9356C33.2249 34.9356 31.0562 32.767 31.0562 30.1016C31.0562 27.4363 33.2249 25.2676 35.8902 25.2676C38.5555 25.2676 40.7242 27.4363 40.7242 30.1016C40.7242 32.767 38.5555 34.9356 35.8902 34.9356Z" stroke="white" stroke-width="2" stroke-miterlimit="10" stroke-linecap="round" stroke-linejoin="round"/>
</g>
</g>
</g>
</g>
<path d="M36 37C35.0111 37 34.0444 36.7068 33.2222 36.1574C32.3999 35.6079 31.759 34.8271 31.3806 33.9134C31.0022 32.9998 30.9031 31.9945 31.0961 31.0246C31.289 30.0546 31.7652 29.1637 32.4645 28.4645C33.1637 27.7652 34.0546 27.289 35.0246 27.0961C35.9945 26.9031 36.9998 27.0022 37.9134 27.3806C38.8271 27.759 39.6079 28.3999 40.1574 29.2222C40.7068 30.0444 41 31.0111 41 32C40.9984 33.3256 40.4711 34.5964 39.5338 35.5338C38.5964 36.4711 37.3256 36.9984 36 37ZM36 29C35.4067 29 34.8266 29.1759 34.3333 29.5056C33.8399 29.8352 33.4554 30.3038 33.2284 30.852C33.0013 31.4001 32.9419 32.0033 33.0576 32.5853C33.1734 33.1672 33.4591 33.7018 33.8787 34.1213C34.2982 34.5409 34.8328 34.8266 35.4147 34.9424C35.9967 35.0581 36.5999 34.9987 37.1481 34.7716C37.6962 34.5446 38.1648 34.1601 38.4944 33.6667C38.8241 33.1734 39 32.5933 39 32C38.9992 31.2046 38.6829 30.442 38.1204 29.8796C37.558 29.3171 36.7954 29.0008 36 29Z" fill="white"/>
<path d="M36 49L27.564 39.051C27.4468 38.9016 27.3308 38.7513 27.216 38.6C25.775 36.7018 24.9965 34.3832 25 32C25 29.0826 26.1589 26.2847 28.2218 24.2218C30.2847 22.1589 33.0826 21 36 21C38.9174 21 41.7153 22.1589 43.7782 24.2218C45.8411 26.2847 47 29.0826 47 32C47.0035 34.3821 46.2254 36.6996 44.785 38.597L44.784 38.6C44.784 38.6 44.484 38.994 44.439 39.047L36 49ZM28.813 37.395C28.813 37.395 29.046 37.703 29.099 37.769L36 45.908L42.91 37.758C42.954 37.703 43.188 37.393 43.189 37.392C44.3662 35.8411 45.0023 33.947 45 32C45 29.6131 44.0518 27.3239 42.364 25.636C40.6761 23.9482 38.387 23 36 23C33.6131 23 31.3239 23.9482 29.6361 25.636C27.9482 27.3239 27 29.6131 27 32C26.9979 33.9482 27.6348 35.8434 28.813 37.395Z" fill="white"/>
<defs>
<clipPath id="clip0_1_62">
<rect width="33" height="33" fill="white" transform="translate(19.3901 18.5)"/>
</clipPath>
<clipPath id="clip1_1_62">
<rect width="33" height="33" fill="white" transform="translate(19.3901 18.5)"/>
</clipPath>
<clipPath id="clip2_1_62">
<rect width="33" height="33" fill="white" transform="translate(19.3901 18.5)"/>
</clipPath>
</defs>
</svg>
